<?xml version="1.0" standalone="no"?>
<!DOCTYPE svg PUBLIC "-//W3C//DTD SVG 20010904//EN"
 "http://www.w3.org/TR/2001/REC-SVG-20010904/DTD/svg10.dtd">
<svg version="1.0" xmlns="http://www.w3.org/2000/svg"
 width="512.000000pt" height="512.000000pt" viewBox="0 0 512.000000 512.000000"
 preserveAspectRatio="xMidYMid meet">
<metadata>
Created by potrace 1.14, written by Peter Selinger 2001-2017
</metadata>
<g transform="translate(0.000000,512.000000) scale(0.100000,-0.100000)"
fill="#000000" stroke="none">
<path d="M437 5083 c-59 -136 -108 -305 -134 -468 -12 -74 -17 -248 -10 -335
8 -91 49 -286 68 -319 5 -9 22 -45 39 -81 67 -144 94 -174 757 -839 l622 -624
-817 -817 c-807 -807 -882 -883 -882 -896 0 -3 -8 -18 -19 -32 -51 -74 -70
-231 -41 -337 41 -151 164 -272 320 -315 58 -16 176 -16 226 0 129 41 98 12
1067 979 505 504 920 917 922 919 2 2 415 -408 919 -911 549 -550 933 -926
960 -942 176 -103 409 -74 549 67 142 145 172 350 77 539 -16 31 -295 318
-944 967 l-921 923 73 69 c95 90 167 125 302 145 187 28 272 59 387 141 53 38
1153 1124 1153 1139 0 2 -46 51 -102 108 l-103 104 -407 -406 -408 -406 -106
106 -106 106 401 401 c220 220 401 405 401 411 0 6 -46 57 -102 112 l-102 100
-405 -405 -406 -406 -103 103 c-56 56 -102 105 -102 109 0 3 180 186 400 406
220 220 400 403 400 406 0 8 -200 206 -208 206 -15 0 -1110 -1107 -1143 -1155
-39 -56 -73 -125 -99 -201 -17 -48 -23 -79 -35 -174 -12 -89 -16 -106 -44
-166 -30 -65 -48 -89 -124 -168 l-48 -50 -962 962 -962 962 -91 0 -91 0 -16
-37z m2323 -2522 c0 -3 -78 -84 -173 -179 l-173 -173 -832 833 c-772 773 -872
876 -872 892 0 4 -10 23 -23 44 -60 97 -94 246 -95 414 0 104 16 251 32 295 5
11 2136 -2110 2136 -2126z m816 980 c162 -161 294 -297 294 -301 0 -11 -63
-66 -112 -96 -58 -37 -109 -53 -223 -70 -55 -8 -118 -19 -140 -25 -113 -29
-233 -101 -338 -203 -36 -36 -70 -66 -75 -66 -4 0 -53 46 -110 103 l-102 103
51 49 c105 103 173 207 214 329 26 76 30 98 40 191 11 107 48 193 117 273 l43
49 24 -21 c13 -12 156 -153 317 -315z m318 -2107 c983 -983 940 -936 916
-1021 -13 -48 -26 -65 -70 -92 -38 -23 -83 -27 -127 -11 -16 6 -426 409 -935
918 l-908 907 102 102 c57 57 106 103 109 103 4 0 415 -408 913 -906z m-1807
675 c50 -49 97 -97 103 -104 10 -12 -136 -162 -823 -849 -651 -650 -844 -837
-870 -844 -99 -28 -199 46 -192 142 2 17 3 40 4 51 1 12 329 348 838 857 461
461 840 838 843 838 4 0 47 -41 97 -91z"/>
</g>
</svg>
